<?xml version="1.0" encoding="utf-8"?>
<!-- Svg Vector Icons : http://www.onlinewebfonts.com/icon -->
<!DOCTYPE svg PUBLIC "-//W3C//DTD SVG 1.1//EN" "http://www.w3.org/Graphics/SVG/1.1/DTD/svg11.dtd">
<svg version="1.1" xmlns="http://www.w3.org/2000/svg" xmlns:xlink="http://www.w3.org/1999/xlink" x="0px" y="0px" viewBox="0 0 1000 1000" enable-background="new 0 0 1000 1000" xml:space="preserve">
<metadata> Svg Vector Icons : http://www.onlinewebfonts.com/icon </metadata>
<g><path d="M910.3,713.4c-22.4-77.5-108-149.1-188-160.9l-20.2-0.2c-7-0.1-17.7,2.6-23.9,6c0,0-16,9.2-30.7,15.5c-43.8,18.9-93.8,29.7-146.9,29.7c-52.8,0-102.6-10.6-146.3-29.4c-14.9-6.4-31.3-15.8-31.3-15.8c-6.2-3.4-16.9-6.1-23.9-6.1l-19.9,0.1C199,562.9,114.5,634,90.5,711c0,0-25.7,51.9-29.3,154c-0.2,13.2,10.5,30.2,24.2,37.3c0,0,136.6,87.7,414.5,87.7c277.9,0,414.5-87.7,414.5-87.7c13.6-7.4,24.5-25.9,24.2-37.6C935.2,763.2,910.3,713.4,910.3,713.4z M848.4,860.3c0,0-114.8,59.6-348.4,59.6s-348.4-59.6-348.4-59.6c-11.5-4.9-20.6-16.4-20.4-25.4c3-69.4,24.6-104.7,24.6-104.7c20.2-52.4,72.5-100.7,139.9-107.9l16.7-0.1c5.9,0,14.9,1.8,20.1,4.1c0,0,13.8,6.4,26.3,10.8c36.7,12.8,97.1,20,141.5,20c44.6,0,103-7.3,139.9-20.2c12.3-4.3,25.8-10.6,25.8-10.6c5.2-2.3,14.2-4.2,20.1-4.1l17,0.2c67.2,8,122.7,56.7,141.6,109.4c0,0,21,33.8,23.9,102.9C869,842.7,859.8,855.3,848.4,860.3z"/><path d="M499.8,513.5c139,0,251.7-112.7,251.7-251.7c0-139-112.7-251.7-251.7-251.7c-139,0-251.7,112.7-251.7,251.7C248.1,400.8,360.8,513.5,499.8,513.5z M499.8,80c100.3,0,181.7,81.3,181.7,181.7c0,100.3-81.3,181.7-181.7,181.7c-100.3,0-181.7-81.3-181.7-181.7C318.1,161.4,399.5,80,499.8,80z"/></g>
</svg>